<?xml version="1.0" standalone="no"?>
<!DOCTYPE svg PUBLIC "-//W3C//DTD SVG 20010904//EN"
 "http://www.w3.org/TR/2001/REC-SVG-20010904/DTD/svg10.dtd">
<svg version="1.0" xmlns="http://www.w3.org/2000/svg"
 width="346.000000pt" height="346.000000pt" viewBox="0 0 346.000000 346.000000"
 preserveAspectRatio="xMidYMid meet">
<metadata>
Created by potrace 1.11, written by Peter Selinger 2001-2013
</metadata>
<g transform="translate(0.000000,346.000000) scale(0.100000,-0.100000)"
fill="#000000" stroke="none">
<path d="M1237 2648 c-102 -60 -96 -221 10 -272 44 -21 344 -23 365 -3 28 28
132 109 170 133 115 73 253 128 376 150 60 11 -35 14 -429 14 -448 0 -454 -1
-492 -22z"/>
<path d="M2368 2515 c-2 -1 -27 -5 -55 -9 -108 -13 -253 -71 -363 -146 -418
-286 -513 -871 -193 -1195 71 -71 87 -85 144 -118 202 -118 479 -125 712 -18
100 45 177 99 263 185 211 212 300 486 244 756 -66 316 -325 531 -659 544 -50
2 -91 3 -93 1z"/>
<path d="M445 2266 c-95 -43 -123 -159 -58 -237 50 -59 51 -59 526 -59 l434 0
48 98 c26 53 66 120 87 148 21 28 38 54 38 57 0 4 -235 7 -522 7 -416 -1 -529
-4 -553 -14z"/>
<path d="M79 1868 c-53 -30 -83 -88 -75 -145 3 -25 15 -60 26 -77 38 -63 15
-61 664 -61 l591 0 2 75 c2 72 17 183 29 215 5 13 -63 15 -597 15 -596 0 -604
-1 -640 -22z"/>
<path d="M345 1482 c-40 -21 -53 -35 -70 -76 -20 -48 -19 -82 6 -132 15 -31
32 -48 63 -63 41 -20 58 -21 554 -21 l511 0 -36 72 c-19 40 -45 109 -56 155
l-20 83 -461 -1 c-397 -1 -465 -3 -491 -17z"/>
<path d="M880 1089 c-48 -28 -69 -60 -76 -113 -9 -65 23 -128 80 -155 41 -20
56 -21 597 -20 332 1 532 5 498 10 -159 23 -336 116 -455 238 l-59 61 -275 0
c-259 0 -277 -2 -310 -21z"/>
</g>
</svg>
